<mxfile host="app.diagrams.net" modified="2024-01-14T03:16:14.071Z" agent="Mozilla/5.0 (Macintosh; Intel Mac OS X 10_15_7) AppleWebKit/537.36 (KHTML, like Gecko) Chrome/120.0.0.0 Safari/537.36" version="22.1.18" etag="zmh2VJOUlz12Pb73CrKa" type="github">
  <diagram name="페이지-1" id="uMU-yH0jN-hz0etGEvv5">
    <mxGraphModel>
      <root>
        <mxCell id="0" />
        <mxCell id="1" parent="0" />
      </root>
    </mxGraphModel>
  </diagram>
</mxfile>
